<?xml version="1.0" encoding="utf-8"?>
<svg version="1.1" xmlns:xlink="http://www.w3.org/1999/xlink" width="128px" height="66px" xmlns="http://www.w3.org/2000/svg">
  <defs>
    <mask fill="white" id="clip24">
      <path d="M 0 36.9090909090909  L 0 19.0909090909091  C 0 8.40000000000046  4.40000000000001 0  10 0  L 108 0  C 113.6 0  118 8.40000000000046  118 19.0909090909091  L 118 36.9090909090909  C 118 47.5999999999995  113.6 56  108 56  L 94.2222222222222 56  L 10 56  C 4.40000000000001 56  0 47.5999999999995  0 36.9090909090909  Z " fill-rule="evenodd" />
    </mask>
    <filter x="210px" y="3855px" width="128px" height="66px" filterUnits="userSpaceOnUse" id="filter25">
      <feOffset dx="5" dy="5" in="SourceAlpha" result="shadowOffsetInner" />
      <feGaussianBlur stdDeviation="2.5" in="shadowOffsetInner" result="shadowGaussian" />
      <feComposite in2="shadowGaussian" operator="atop" in="SourceAlpha" result="shadowComposite" />
      <feColorMatrix type="matrix" values="0 0 0 0 0  0 0 0 0 0  0 0 0 0 0  0 0 0 0.349019607843137 0  " in="shadowComposite" />
    </filter>
    <g id="widget26">
      <path d="M 0 36.9090909090909  L 0 19.0909090909091  C 0 8.40000000000046  4.40000000000001 0  10 0  L 108 0  C 113.6 0  118 8.40000000000046  118 19.0909090909091  L 118 36.9090909090909  C 118 47.5999999999995  113.6 56  108 56  L 94.2222222222222 56  L 10 56  C 4.40000000000001 56  0 47.5999999999995  0 36.9090909090909  Z " fill-rule="nonzero" fill="#facd91" stroke="none" transform="matrix(1 0 0 1 210 3855 )" />
      <path d="M 0 36.9090909090909  L 0 19.0909090909091  C 0 8.40000000000046  4.40000000000001 0  10 0  L 108 0  C 113.6 0  118 8.40000000000046  118 19.0909090909091  L 118 36.9090909090909  C 118 47.5999999999995  113.6 56  108 56  L 94.2222222222222 56  L 10 56  C 4.40000000000001 56  0 47.5999999999995  0 36.9090909090909  Z " stroke-width="8" stroke="#ec808d" fill="none" transform="matrix(1 0 0 1 210 3855 )" mask="url(#clip24)" />
    </g>
  </defs>
  <g transform="matrix(1 0 0 1 -210 -3855 )">
    <use xlink:href="#widget26" filter="url(#filter25)" />
    <use xlink:href="#widget26" />
  </g>
</svg>