<?xml version="1.0" encoding="utf-8"?>
<svg version="1.1" xmlns:xlink="http://www.w3.org/1999/xlink" width="135px" height="135px" xmlns="http://www.w3.org/2000/svg">
  <g transform="matrix(1 0 0 1 322 45 )">
    <path d="M -254.5 -39  C -220.06 -39  -193 -11.94  -193 22.5  C -193 56.94  -220.06 84  -254.5 84  C -288.94 84  -316 56.94  -316 22.5  C -316 -11.94  -288.94 -39  -254.5 -39  Z " fill-rule="nonzero" fill="#ffffff" stroke="none" />
    <path d="M -254.5 -41.5  C -218.66 -41.5  -190.5 -13.34  -190.5 22.5  C -190.5 58.34  -218.66 86.5  -254.5 86.5  C -290.34 86.5  -318.5 58.34  -318.5 22.5  C -318.5 -13.34  -290.34 -41.5  -254.5 -41.5  Z " stroke-width="7" stroke="#ec808d" fill="none" />
  </g>
</svg>