<?xml version="1.0" encoding="utf-8"?>
<svg version="1.1" xmlns:xlink="http://www.w3.org/1999/xlink" width="98px" height="54px" xmlns="http://www.w3.org/2000/svg">
  <defs>
    <mask fill="white" id="clip15">
      <path d="M 0 29  L 0 15  C 0 6.59999999999991  6.59999999999991 0  15 0  L 73 0  C 81.4000000000001 0  88 6.59999999999991  88 15  L 88 29  C 88 37.4000000000001  81.4000000000001 44  73 44  L 47.25 44  L 15 44  C 6.59999999999991 44  0 37.4000000000001  0 29  Z " fill-rule="evenodd" />
    </mask>
    <filter x="-927px" y="3064px" width="98px" height="54px" filterUnits="userSpaceOnUse" id="filter16">
      <feOffset dx="5" dy="5" in="SourceAlpha" result="shadowOffsetInner" />
      <feGaussianBlur stdDeviation="2.5" in="shadowOffsetInner" result="shadowGaussian" />
      <feComposite in2="shadowGaussian" operator="atop" in="SourceAlpha" result="shadowComposite" />
      <feColorMatrix type="matrix" values="0 0 0 0 0  0 0 0 0 0  0 0 0 0 0  0 0 0 0.349019607843137 0  " in="shadowComposite" />
    </filter>
    <g id="widget17">
      <path d="M 0 29  L 0 15  C 0 6.59999999999991  6.59999999999991 0  15 0  L 73 0  C 81.4000000000001 0  88 6.59999999999991  88 15  L 88 29  C 88 37.4000000000001  81.4000000000001 44  73 44  L 47.25 44  L 15 44  C 6.59999999999991 44  0 37.4000000000001  0 29  Z " fill-rule="nonzero" fill="#facd91" stroke="none" transform="matrix(1 0 0 1 -927 3064 )" />
      <path d="M 0 29  L 0 15  C 0 6.59999999999991  6.59999999999991 0  15 0  L 73 0  C 81.4000000000001 0  88 6.59999999999991  88 15  L 88 29  C 88 37.4000000000001  81.4000000000001 44  73 44  L 47.25 44  L 15 44  C 6.59999999999991 44  0 37.4000000000001  0 29  Z " stroke-width="8" stroke="#ffffff" fill="none" transform="matrix(1 0 0 1 -927 3064 )" mask="url(#clip15)" />
    </g>
  </defs>
  <g transform="matrix(1 0 0 1 927 -3064 )">
    <use xlink:href="#widget17" filter="url(#filter16)" />
    <use xlink:href="#widget17" />
  </g>
</svg>