<?xml version="1.0" encoding="utf-8"?>
<svg version="1.1" xmlns:xlink="http://www.w3.org/1999/xlink" width="187px" height="54px" xmlns="http://www.w3.org/2000/svg">
  <defs>
    <mask fill="white" id="clip19">
      <path d="M 0 29  L 0 15  C 0 6.60000000000036  6.60000000000002 0  15 0  L 162 0  C 170.4 0  177 6.60000000000036  177 15  L 177 29  C 177 37.3999999999996  170.4 44  162 44  L 141.333333333333 44  L 15 44  C 6.60000000000002 44  0 37.3999999999996  0 29  Z " fill-rule="evenodd" />
    </mask>
    <filter x="283px" y="4884px" width="187px" height="54px" filterUnits="userSpaceOnUse" id="filter20">
      <feOffset dx="5" dy="5" in="SourceAlpha" result="shadowOffsetInner" />
      <feGaussianBlur stdDeviation="2.5" in="shadowOffsetInner" result="shadowGaussian" />
      <feComposite in2="shadowGaussian" operator="atop" in="SourceAlpha" result="shadowComposite" />
      <feColorMatrix type="matrix" values="0 0 0 0 0  0 0 0 0 0  0 0 0 0 0  0 0 0 0.349019607843137 0  " in="shadowComposite" />
    </filter>
    <g id="widget21">
      <path d="M 0 29  L 0 15  C 0 6.60000000000036  6.60000000000002 0  15 0  L 162 0  C 170.4 0  177 6.60000000000036  177 15  L 177 29  C 177 37.3999999999996  170.4 44  162 44  L 141.333333333333 44  L 15 44  C 6.60000000000002 44  0 37.3999999999996  0 29  Z " fill-rule="nonzero" fill="#facd91" stroke="none" transform="matrix(1 0 0 1 283 4884 )" />
      <path d="M 0 29  L 0 15  C 0 6.60000000000036  6.60000000000002 0  15 0  L 162 0  C 170.4 0  177 6.60000000000036  177 15  L 177 29  C 177 37.3999999999996  170.4 44  162 44  L 141.333333333333 44  L 15 44  C 6.60000000000002 44  0 37.3999999999996  0 29  Z " stroke-width="8" stroke="#ec808d" fill="none" transform="matrix(1 0 0 1 283 4884 )" mask="url(#clip19)" />
    </g>
  </defs>
  <g transform="matrix(1 0 0 1 -283 -4884 )">
    <use xlink:href="#widget21" filter="url(#filter20)" />
    <use xlink:href="#widget21" />
  </g>
</svg>